<svg width="1920" height="680" viewBox="0 200 1920 680" fill="none" xmlns="http://www.w3.org/2000/svg">
<g clip-path="url(#clip0_3786_152)">
<rect width="1920" height="1080" fill="#FF2626"/>
<path d="M986.598 379.13H1094.52V616.017H1239.04V699.867H986.598V379.13ZM1314.58 379.13H1472.35C1508.02 379.13 1539.43 385.697 1566.56 398.832C1594 411.662 1615.19 430.143 1630.13 454.274C1645.37 478.405 1652.99 506.813 1652.99 539.499C1652.99 572.184 1645.37 600.592 1630.13 624.723C1615.19 648.854 1594 667.488 1566.56 680.623C1539.43 693.453 1508.02 699.867 1472.35 699.867H1314.58V379.13ZM1467.78 615.559C1490.95 615.559 1509.39 608.991 1523.11 595.857C1537.14 582.416 1544.15 563.63 1544.15 539.499C1544.15 515.367 1537.14 496.733 1523.11 483.598C1509.39 470.158 1490.95 463.438 1467.78 463.438H1422.5V615.559H1467.78Z" fill="white"/>
<path d="M690.407 544.081L722.018 625.582H659.932L690.407 544.081Z" fill="white"/>
<path d="M652.149 379.13L549.71 699.868H434.009L382.332 528.502L327.911 699.868H212.21L109.771 379.13H220.899L276.692 561.492L335.686 379.13H434.924L490.716 563.783L549.71 379.13H652.149Z" fill="white"/>
<path d="M723.943 379.13H819.98L961.748 699.868H847.419L723.943 379.13Z" fill="white"/>
<path d="M1740.12 477.003L1789.12 477.003L1789.12 486.103L1747.82 486.103L1747.82 511.723L1740.12 511.723L1740.12 477.003ZM1739.63 533.545C1739.63 529.439 1740.68 526.265 1742.78 524.025C1744.93 521.785 1748.08 520.665 1752.23 520.665L1785.76 520.665L1785.76 529.415L1752.44 529.415C1750.67 529.415 1749.29 529.859 1748.31 530.745C1747.33 531.679 1746.84 532.962 1746.84 534.595C1746.84 536.555 1747.35 538.189 1748.38 539.495L1742.15 541.945C1741.31 540.919 1740.68 539.659 1740.26 538.165C1739.84 536.672 1739.63 535.132 1739.63 533.545ZM1770.22 514.505L1777.22 514.505L1777.22 539.425L1770.22 539.425L1770.22 514.505ZM1739.63 565.483C1739.63 561.89 1740.42 558.646 1742.01 555.753C1743.64 552.906 1745.88 550.666 1748.73 549.033C1751.58 547.4 1754.94 546.583 1758.81 546.583C1762.68 546.583 1766.04 547.4 1768.89 549.033C1771.74 550.666 1773.95 552.906 1775.54 555.753C1777.13 558.646 1777.92 561.89 1777.92 565.483C1777.92 568.61 1777.22 571.41 1775.82 573.883C1774.47 576.356 1772.39 578.316 1769.59 579.763C1766.79 581.21 1763.2 581.933 1758.81 581.933C1754.47 581.933 1750.88 581.233 1748.03 579.833C1745.23 578.433 1743.13 576.496 1741.73 574.023C1740.33 571.55 1739.63 568.703 1739.63 565.483ZM1747.12 566.533C1747.12 568.633 1747.59 570.5 1748.52 572.133C1749.45 573.813 1750.81 575.143 1752.58 576.123C1754.35 577.15 1756.43 577.663 1758.81 577.663C1761.24 577.663 1763.31 577.15 1765.04 576.123C1766.81 575.143 1768.17 573.813 1769.1 572.133C1770.03 570.5 1770.5 568.633 1770.5 566.533C1770.5 564.433 1770.03 562.543 1769.1 560.863C1768.17 559.23 1766.81 557.9 1765.04 556.873C1763.31 555.893 1761.24 555.403 1758.81 555.403C1756.43 555.403 1754.35 555.893 1752.58 556.873C1750.81 557.9 1749.45 559.23 1748.52 560.863C1747.59 562.543 1747.12 564.433 1747.12 566.533ZM1740.12 577.873L1748.94 577.873L1758.88 578.223L1768.82 577.523L1792.06 577.523L1792.06 586.203L1740.12 586.203L1740.12 577.873Z" fill="white"/>
<path d="M1771.12 668.953H1732.88V707.2H1771.12V668.953Z" fill="white"/>
</g>
<defs>
<clipPath id="clip0_3786_152">
<rect width="1920" height="1080" fill="white"/>
</clipPath>
</defs>
</svg>
